Coordinates
version=1
nRows=17
nColumns=36
inDegrees=yes

Units are S.I. units (second, meters, Newtons, ...)
If the header above contains a line with 'inDegrees', this indicates whether rotational values are in degrees (yes) or radians (no).

endheader
time	pelvis_tilt	pelvis_list	pelvis_rotation	pelvis_tx	pelvis_ty	pelvis_tz	hip_flexion_r	hip_adduction_r	hip_rotation_r	knee_angle_r	knee_angle_r_beta	ankle_angle_r	subtalar_angle_r	mtp_angle_r	hip_flexion_l	hip_adduction_l	hip_rotation_l	knee_angle_l	knee_angle_l_beta	ankle_angle_l	subtalar_angle_l	mtp_angle_l	lumbar_extension	lumbar_bending	lumbar_rotation	arm_flex_r	arm_add_r	arm_rot_r	elbow_flex_r	pro_sup_r	arm_flex_l	arm_add_l	arm_rot_l	elbow_flex_l	pro_sup_l
      0.00000000	      0.38904241	      0.52882273	     -2.13999430	      0.03535314	      1.11450826	     -0.22791932	     25.00329569	      2.79238857	     -0.29172609	     13.98146883	      0.24402267	     -6.79858487	    -10.19465124	     -4.64212854	    -14.05491114	      4.11047136	     -5.28167301	     22.75876856	      0.39721545	      5.43747979	     -8.98469698	     -4.64212854	    -10.44501501	      3.73899883	     -2.83901684	    -14.36663938	     -6.82075121	    -14.32026415	     46.39043055	    108.37924083	    -10.97279198	     -3.90378879	    -10.33975352	     49.28011315	    105.71140901
      0.01000000	      0.69517976	      0.27327611	     -2.22399391	      0.04838928	      1.11650736	     -0.22658940	     24.51265416	      3.10988603	     -0.07764593	     15.03521819	      0.26241406	     -6.43044999	    -10.49983999	     -4.66101205	    -13.32333027	      3.47388465	     -6.10374407	     25.62408788	      0.44722470	      3.69332790	     -9.12104404	     -4.66101205	    -10.76625827	      4.08444349	     -2.57846286	    -14.37765035	     -6.90054833	    -14.42909087	     46.20886785	    108.49207552	    -11.04026321	     -3.69239399	    -10.43348055	     49.03624339	    105.80765860
      0.02000000	      0.55437311	     -0.03980807	     -2.39187723	      0.06139025	      1.11792491	     -0.22515493	     24.52655252	      3.56060625	      0.26144593	     16.14690610	      0.28181668	     -6.04522201	    -10.80654225	     -4.85924538	    -12.08424396	      2.78238337	     -6.89333554	     28.47790290	      0.49703317	      1.00012145	    -10.21846828	     -4.85924538	    -10.52432787	      4.55586163	     -2.16471463	    -14.52781721	     -6.86088585	    -14.94298154	     46.04811727	    109.48682114	    -11.13329829	     -3.39326429	    -10.49116796	     48.46751890	    106.95951616
      0.03000000	      0.75918021	     -0.38510931	     -2.43599837	      0.07423310	      1.11985032	     -0.22372033	     24.05509211	      3.98237718	      0.34589892	     17.04890754	      0.29755957	     -5.51734181	    -11.08405088	     -4.88239822	    -11.13623130	      1.93387406	     -7.67398121	     31.44945027	      0.54889646	     -0.98556370	    -10.20161108	     -4.88239822	    -10.73447020	      5.00423025	     -1.93810747	    -14.54345869	     -6.92318281	    -14.98997899	     45.92567347	    109.55443832	    -11.25982021	     -3.17463194	    -10.54418029	     48.31117384	    107.05253947
      0.04000000	      0.74644540	     -0.70516863	     -2.45307764	      0.08668626	      1.12154787	     -0.22223905	     23.78019051	      4.40223666	      0.51733231	     17.86997460	      0.31188989	     -4.98570024	    -11.30123421	     -4.91289648	     -9.80079923	      1.10398767	     -8.15865447	     34.57804308	      0.60350070	     -3.30250733	    -10.63784176	     -4.91289648	    -10.72140607	      5.43576426	     -1.70770875	    -14.55760036	     -6.95242247	    -15.05872809	     45.84447148	    109.64145430	    -11.39875359	     -3.00758130	    -10.59151510	     48.19514330	    107.19309307
      0.05000000	      0.76746711	     -0.95602407	     -2.37546411	      0.09882225	      1.12340696	     -0.22082490	     23.38171889	      4.71677549	      0.53969355	     18.50492473	      0.32297186	     -4.39939390	    -11.54457777	     -4.93967608	     -8.36361245	      0.31571877	     -8.42833629	     37.78960674	      0.65955306	     -5.77976166	    -11.12481468	     -4.93967608	    -10.77488857	      5.75738118	     -1.55324537	    -14.54304095	     -6.98371867	    -15.09690286	     45.78748407	    109.71804514	    -11.51542278	     -2.92743653	    -10.58275912	     48.16981447	    107.33253365
      0.06000000	      0.58448946	     -1.11126889	     -2.20675728	      0.11056366	      1.12504109	     -0.21957863	     23.15774149	      4.90076627	      0.49985317	     19.02466171	      0.33204299	     -3.83794796	    -11.68171848	     -4.98240326	     -6.55319589	     -0.34780979	     -8.40146405	     41.04631669	      0.71639337	     -8.80044202	    -12.32008442	     -4.98240326	    -10.58003877	      6.00994032	     -1.52563622	    -14.50328193	     -6.93839861	    -15.08089404	     45.76998484	    109.84516861	    -11.64835259	     -2.85996355	    -10.49823890	     48.21646765	    107.56909674
      0.07000000	      0.67441783	     -1.32113296	     -1.96268691	      0.12216517	      1.12710061	     -0.21833647	     22.50162929	      5.11446090	      0.30594790	     19.28695153	      0.33662081	     -3.20148040	    -11.87003251	     -5.00583023	     -4.99756514	     -1.10109590	     -8.30244730	     44.18502191	      0.77117411	    -11.49378475	    -12.56612490	     -5.00583023	    -10.73655841	      6.26246837	     -1.48953608	    -14.43766292	     -6.98292525	    -15.03742237	     45.76208493	    109.91390516	    -11.70076317	     -2.83969810	    -10.38449127	     48.35110798	    107.71230302
      0.08000000	      0.48532855	     -1.28756926	     -1.65443196	      0.13337496	      1.12880455	     -0.21739281	     22.17205077	      5.01866142	     -0.01895106	     19.55089444	      0.34122748	     -2.56430112	    -11.70428943	     -5.09942165	     -3.04102848	     -1.47113441	     -7.93493788	     47.15399141	      0.82299241	    -15.43145998	    -14.63286676	     -5.09942165	    -10.53578830	      6.27205241	     -1.59496070	    -14.32800832	     -7.01183229	    -14.86532125	     45.71871659	    110.14492018	    -11.82772872	     -2.92029990	    -10.21398009	     48.43205704	    108.16167824
      0.09000000	      0.54855579	     -1.51827358	     -1.29160555	      0.14463889	      1.13084324	     -0.21629410	     21.38046597	      5.21567519	     -0.36800151	     19.45618274	      0.33957445	     -1.98982134	    -11.78872514	     -5.12193742	     -1.35998217	     -2.23907938	     -7.64862811	     50.04294071	      0.87341408	    -17.81645483	    -14.51895183	     -5.12193742	    -10.63213360	      6.55339179	     -1.63988635	    -14.26817205	     -7.04410654	    -14.79749935	     45.84515159	    110.19947814	    -11.90079812	     -2.98104836	    -10.03164146	     48.66647441	    108.29127017
      0.10000000	      0.36427674	     -1.50571962	     -0.88681315	      0.15553296	      1.13255121	     -0.21553248	     20.94339184	      5.10261399	     -0.86656143	     19.48463074	      0.34007096	     -1.43105101	    -11.53679984	     -5.19456290	      0.63915046	     -2.60416165	     -7.21324522	     52.68952737	      0.91960573	    -21.06190010	    -16.14220181	     -5.19456290	    -10.43417217	      6.58270164	     -1.78387543	    -14.20385313	     -7.10343952	    -14.61430785	     45.91841259	    110.32855864	    -11.96295259	     -3.11303858	     -9.69380161	     48.81292303	    108.58622575
      0.11000000	      0.36735756	     -1.58079673	     -0.52490387	      0.16642995	      1.13451433	     -0.21468261	     20.21467932	      5.10901141	     -1.33333163	     19.32936116	      0.33736099	     -0.85641373	    -11.30765686	     -5.26573357	      2.36707307	     -3.04053417	     -6.79184605	     55.09267095	      0.96154850	    -23.16776151	    -16.89519302	     -5.26573357	    -10.44627673	      6.67706197	     -1.81857821	    -14.14066551	     -7.14382047	    -14.48638093	     46.07141864	    110.41948411	    -11.98665438	     -3.24524576	     -9.41385095	     48.96727795	    108.81632679
      0.12000000	      0.43565809	     -1.66212917	     -0.17033499	      0.17722050	      1.13657998	     -0.21387663	     19.37979528	      5.14184444	     -1.71634244	     19.08235781	      0.33304997	     -0.41299677	    -11.18038680	     -5.29790413	      3.99265946	     -3.47561075	     -6.42766004	     57.30321534	      1.00012978	    -24.19736096	    -17.33537548	     -5.29790413	    -10.52582896	      6.78484883	     -1.84113660	    -14.06309816	     -7.20283752	    -14.39504739	     46.27419954	    110.46086382	    -11.98933831	     -3.33856226	     -9.17340797	     49.14278460	    108.92595627
      0.13000000	      0.53127589	     -1.65697428	      0.14176886	      0.18785939	      1.13872526	     -0.21307477	     18.52056766	      5.10362487	     -2.02091057	     18.82122450	      0.32849234	      0.01138136	    -11.05680172	     -5.31915415	      5.53442524	     -3.74952665	     -6.07156102	     59.25997707	      1.03428171	    -24.52159178	    -17.95799502	     -5.31915415	    -10.64528565	      6.76894837	     -1.74340288	    -14.00368437	     -7.26240805	    -14.29332575	     46.41422200	    110.48832942	    -11.92370186	     -3.42701391	     -8.98133716	     49.30002352	    108.99895790
      0.14000000	      0.74988686	     -1.42550796	      0.28258786	      0.19828048	      1.14114255	     -0.21213234	     17.57567983	      4.87449309	     -2.12145620	     18.62975165	      0.32515051	      0.20065043	    -10.95780289	     -5.32649680	      6.83633671	     -3.75399411	     -5.92882191	     60.85255277	      1.06207740	    -24.38213480	    -18.42030932	     -5.32649680	    -10.96131473	      6.46370096	     -1.50143171	    -13.82897833	     -7.25498829	    -14.19858010	     46.49959963	    110.50460111	    -11.75961229	     -3.52154005	     -8.93185006	     49.38664188	    109.02280308
      0.15000000	      0.71785538	     -1.50315816	      0.60985139	      0.20878998	      1.14305065	     -0.21151788	     16.83871984	      4.91607396	     -2.45893761	     18.30019209	      0.31939861	      0.68463650	    -10.70817718	     -5.34426686	      8.46633554	     -4.01876701	     -5.54544757	     62.45966192	      1.09012675	    -23.43002775	    -19.50406633	     -5.34426686	    -10.88188373	      6.57475368	     -1.43191007	    -13.82797101	     -7.37600574	    -14.10317864	     46.70226871	    110.53185018	    -11.78952008	     -3.57666825	     -8.67984301	     49.58328184	    109.09427314
      0.16000000	      0.75619841	     -1.37970003	      0.76855301	      0.21910794	      1.14512247	     -0.21069467	     16.07944392	      4.78265582	     -2.67514536	     18.05741868	      0.31516141	      1.02943847	    -10.40198308	     -5.36191683	      9.91696768	     -4.07351740	     -5.37339489	     63.68207085	      1.11146181	    -22.44035441	    -20.10746491	     -5.36191683	    -10.92753106	      6.42704172	     -1.23190488	    -13.75175679	     -7.44431157	    -14.01518379	     46.85131070	    110.55832681	    -11.75190231	     -3.64334085	     -8.52914400	     49.70917824	    109.14321562
